<svg width="104" height="104" viewBox="0 0 104 104" fill="none" xmlns="http://www.w3.org/2000/svg">
<g filter="url(#filter0_d_645_6959)">
<g filter="url(#filter1_i_645_6959)">
<circle cx="52" cy="48.0001" r="36" fill="#F9FAFB"/>
</g>
<circle cx="52" cy="48.0001" r="35.5" stroke="#E5E7EB"/>
<rect width="32" height="32" transform="translate(36.5 32.0001)" fill="url(#paint0_radial_645_6959)" fill-opacity="0.4"/>
<path d="M65.8327 46.781V48.0077C65.831 50.8829 64.9 53.6806 63.1785 55.9835C61.4569 58.2863 59.0371 59.971 56.2798 60.7862C53.5226 61.6015 50.5757 61.5036 47.8786 60.5072C45.1816 59.5107 42.8789 57.6692 41.314 55.2571C39.749 52.8451 39.0057 49.9918 39.1949 47.1228C39.3841 44.2538 40.4956 41.5228 42.3637 39.3371C44.2318 37.1515 46.7564 35.6282 49.5609 34.9946C52.3655 34.3609 55.2997 34.6508 57.926 35.821M65.8327 37.3334L52.4993 50.6801L48.4993 46.6801" stroke="#5F00E7" stroke-width="2" stroke-linecap="round" stroke-linejoin="round"/>
</g>
<defs>
<filter id="filter0_d_645_6959" x="0" y="6.10352e-05" width="104" height="104" filterUnits="userSpaceOnUse" color-interpolation-filters="sRGB">
<feFlood flood-opacity="0" result="BackgroundImageFix"/>
<feColorMatrix in="SourceAlpha" type="matrix" values="0 0 0 0 0 0 0 0 0 0 0 0 0 0 0 0 0 0 127 0" result="hardAlpha"/>
<feOffset dy="4"/>
<feGaussianBlur stdDeviation="8"/>
<feComposite in2="hardAlpha" operator="out"/>
<feColorMatrix type="matrix" values="0 0 0 0 0.0625 0 0 0 0 0.0625 0 0 0 0 0.0625 0 0 0 0.15 0"/>
<feBlend mode="normal" in2="BackgroundImageFix" result="effect1_dropShadow_645_6959"/>
<feBlend mode="normal" in="SourceGraphic" in2="effect1_dropShadow_645_6959" result="shape"/>
</filter>
<filter id="filter1_i_645_6959" x="16" y="12.0001" width="72" height="76" filterUnits="userSpaceOnUse" color-interpolation-filters="sRGB">
<feFlood flood-opacity="0" result="BackgroundImageFix"/>
<feBlend mode="normal" in="SourceGraphic" in2="BackgroundImageFix" result="shape"/>
<feColorMatrix in="SourceAlpha" type="matrix" values="0 0 0 0 0 0 0 0 0 0 0 0 0 0 0 0 0 0 127 0" result="hardAlpha"/>
<feOffset dy="4"/>
<feGaussianBlur stdDeviation="2"/>
<feComposite in2="hardAlpha" operator="arithmetic" k2="-1" k3="1"/>
<feColorMatrix type="matrix" values="0 0 0 0 0.846712 0 0 0 0 0.746799 0 0 0 0 0.746799 0 0 0 0.25 0"/>
<feBlend mode="normal" in2="shape" result="effect1_innerShadow_645_6959"/>
</filter>
<radialGradient id="paint0_radial_645_6959" cx="0" cy="0" r="1" gradientUnits="userSpaceOnUse" gradientTransform="translate(16 16) rotate(90) scale(16)">
<stop stop-color="#5F00E7"/>
<stop offset="1" stop-color="white" stop-opacity="0"/>
</radialGradient>
</defs>
</svg>
