<svg width="154" height="30" viewBox="0 0 154 30" fill="none" xmlns="http://www.w3.org/2000/svg">
<rect width="30" height="30" rx="7.49484" fill="#0F0F12"/>
<path d="M20.0795 15.7049C19.5249 15.1866 18.7061 14.8798 17.6226 14.7849C17.5758 14.7808 17.5395 14.7419 17.5395 14.6949V14.6949C17.5395 14.6478 17.5767 14.6087 17.6237 14.6047C19.496 14.4476 20.4318 13.5169 20.4318 11.8121C20.4318 10.8358 20.0983 10.0883 19.4305 9.56917C18.7634 9.05007 17.7932 8.79053 16.5198 8.79053H9.49086C9.25635 8.79053 9.06641 8.98041 9.06641 9.21485V13.5073C9.06641 13.6254 9.16226 13.7212 9.2804 13.7212H11.4285C11.5678 13.7212 11.658 13.752 11.7366 13.829C11.8151 13.9061 11.8473 14.0058 11.8473 14.1102V15.735C11.8473 15.8594 11.791 15.9312 11.7525 15.9641C11.7139 15.997 11.6644 16.0136 11.5378 16.0218H10.6623C10.604 16.0218 10.5347 15.9984 10.4989 15.9687C10.4671 15.9422 10.4459 15.8722 10.4459 15.8096V15.0847C10.4459 14.9677 10.3507 14.8725 10.2337 14.8725H9.27863C9.16155 14.8725 9.06641 14.9677 9.06641 15.0847V15.8096C9.06641 15.9266 9.16155 16.0218 9.27863 16.0218H10.2337C10.2934 16.0263 10.3422 16.0596 10.3751 16.0925C10.4084 16.1257 10.4459 16.1802 10.4459 16.2339V16.9588C10.4459 17.0758 10.541 17.171 10.6581 17.171H11.6131C11.7302 17.171 11.8253 17.0758 11.8253 16.9588V16.3273C11.8253 16.2484 11.8349 16.1614 11.8883 16.1073C11.9417 16.0532 12.0125 16.0203 12.0595 16.0203H16.5382C17.107 16.0203 17.5148 16.1254 17.762 16.3354C18.0093 16.5331 18.1327 16.8729 18.1327 17.3548C18.1327 17.8368 18.0093 18.2014 17.762 18.4114C17.5148 18.6091 17.107 18.7081 16.5382 18.7081H12.0599C11.9428 18.7081 11.8476 18.8032 11.8476 18.9206V20.9963C11.8476 21.1144 11.9435 21.2106 12.0616 21.2106H16.8721C18.2318 21.2106 19.2515 20.9079 19.9313 20.3021C20.6112 19.6968 20.9511 18.8499 20.9511 17.7625C20.9511 16.91 20.6607 16.224 20.0795 15.7049ZM17.2983 13.4433C17.0758 13.6286 16.7112 13.7212 16.2043 13.7212H12.1897C12.0521 13.7212 11.9527 13.7039 11.9095 13.671C11.8664 13.6381 11.8476 13.5925 11.8476 13.5278V11.2926H16.1675C16.6867 11.2926 17.0638 11.3916 17.2987 11.5893C17.5335 11.7746 17.651 12.0837 17.651 12.5161C17.651 12.9486 17.5335 13.2452 17.2987 13.4429L17.2983 13.4433Z" fill="white"/>
<path d="M62.4705 17.4336C62.4705 12.5648 65.9573 9.49187 71.1428 9.49187C76.3282 9.49187 79.815 12.5648 79.815 17.4336C79.815 22.3025 76.3282 25.3448 71.1428 25.3448C65.9573 25.3448 62.4705 22.2414 62.4705 17.4336ZM75.2972 17.4336C75.2972 14.7558 74.2053 13.5094 71.1428 13.5094C68.0802 13.5094 66.9883 14.7575 66.9883 17.4336C66.9883 20.1097 68.0497 21.2985 71.1428 21.2985C74.2358 21.2985 75.2972 20.1114 75.2972 17.4336Z" fill="#0F0F12"/>
<path d="M81.0878 17.4336C81.0878 12.5648 84.5746 9.49187 89.76 9.49187C94.9455 9.49187 98.4323 12.5648 98.4323 17.4336C98.4323 22.3025 94.9455 25.3448 89.76 25.3448C84.5746 25.3448 81.0878 22.2414 81.0878 17.4336ZM93.9145 17.4336C93.9145 14.7558 92.8226 13.5094 89.76 13.5094C86.6975 13.5094 85.6056 14.7575 85.6056 17.4336C85.6056 20.1097 86.667 21.2985 89.76 21.2985C92.8531 21.2985 93.9145 20.1114 93.9145 17.4336Z" fill="#0F0F12"/>
<path d="M101.316 25.041C100.745 25.0403 100.283 24.5774 100.283 24.0065V10.1774C100.283 9.96739 100.453 9.7971 100.662 9.7971H104.12C104.329 9.7971 104.499 9.96739 104.499 10.1774V14.291C104.499 14.3632 104.557 14.4217 104.629 14.4217C104.694 14.4217 104.749 14.3738 104.759 14.3095C105.15 11.797 106.677 9.49354 110.443 9.49354C113.903 9.49354 115.691 11.5845 116.066 14.3455C116.076 14.4235 116.142 14.4828 116.221 14.4828C116.298 14.4828 116.363 14.4257 116.375 14.3493C116.773 11.8145 118.332 9.49354 122.178 9.49354C126.09 9.49354 128 12.0797 128 15.5478V24.6609C128 24.871 127.831 25.0413 127.621 25.0413H123.831C123.622 25.0413 123.452 24.871 123.452 24.6609V17.0707C123.452 14.5455 122.573 13.6026 119.965 13.6026C117.205 13.6026 116.418 14.6982 116.418 17.3454V24.6626C116.418 24.8727 116.248 25.043 116.039 25.043H112.248C112.039 25.043 111.869 24.8727 111.869 24.6626V17.0724C111.869 14.5472 110.991 13.6043 108.383 13.6043C105.623 13.6043 104.835 14.6999 104.835 17.3471V24.6643C104.835 24.8744 104.665 25.0446 104.456 25.0446C104.224 25.0446 102.475 25.0425 101.316 25.041Z" fill="#0F0F12"/>
<path d="M131.337 25.0392C130.765 25.0392 130.302 24.5761 130.302 24.0048V5.03553C130.302 4.82547 130.472 4.65518 130.681 4.65518H147.117C147.327 4.65518 147.496 4.82547 147.496 5.03553V8.38223C147.496 8.59229 147.327 8.76257 147.117 8.76257H135.231C135.022 8.76257 134.852 8.93286 134.852 9.14292V12.9763C134.852 13.1864 135.022 13.3567 135.231 13.3567H146.663C146.872 13.3567 147.042 13.527 147.042 13.737V17.0532C147.042 17.2633 146.872 17.4335 146.663 17.4335H135.231C135.022 17.4335 134.852 17.6038 134.852 17.8139V24.6592C134.852 24.8692 134.682 25.0395 134.473 25.0395L131.337 25.0392Z" fill="#0F0F12"/>
<path d="M149.816 8.81006C149.606 8.81006 149.437 8.63977 149.437 8.42971V5.03553C149.437 4.82547 149.606 4.65518 149.816 4.65518H153.606C153.815 4.65518 153.985 4.82547 153.985 5.03553V8.42971C153.985 8.63977 153.815 8.81006 153.606 8.81006H149.816ZM149.816 25.0412C149.606 25.0412 149.437 24.8709 149.437 24.6609L149.437 11.0559C149.437 10.8458 149.606 10.6755 149.816 10.6755H153.606C153.815 10.6755 153.985 10.8458 153.985 11.0559L153.985 24.6609C153.985 24.8709 153.815 25.0412 153.606 25.0412H149.816Z" fill="#0F0F12"/>
<path d="M59.39 16.0046C58.483 15.154 57.1441 14.6504 55.3724 14.4946C55.2956 14.4879 55.2361 14.4239 55.2361 14.3468V14.3468C55.2361 14.2694 55.297 14.2052 55.3741 14.1987C58.4359 13.9407 59.9662 12.4131 59.9662 9.61484C59.9662 8.01231 59.4207 6.78531 58.3286 5.93326C57.2376 5.08121 55.6508 4.65518 53.5684 4.65518H42.0731C41.6895 4.65518 41.3789 4.96687 41.3789 5.35168V12.3974C41.3789 12.5912 41.5357 12.7485 41.7289 12.7485H45.2419C45.4698 12.7485 45.6173 12.799 45.7457 12.9255C45.8742 13.0521 45.9268 13.2157 45.9268 13.387V16.054C45.9268 16.2583 45.8348 16.3761 45.7718 16.4301C45.7087 16.4841 45.6277 16.5113 45.4207 16.5247H43.9889C43.8935 16.5247 43.7801 16.4864 43.7217 16.4376C43.6696 16.3941 43.6349 16.2792 43.6349 16.1764V14.9866C43.6349 14.7945 43.4793 14.6383 43.2878 14.6383H41.726C41.5345 14.6383 41.3789 14.7945 41.3789 14.9866V16.1764C41.3789 16.3686 41.5345 16.5247 41.726 16.5247H43.2878C43.3856 16.5322 43.4654 16.5868 43.5192 16.6408C43.5736 16.6953 43.6349 16.7847 43.6349 16.8729V18.0628C43.6349 18.2549 43.7905 18.411 43.982 18.411H45.5439C45.7353 18.411 45.8909 18.2549 45.8909 18.0628V17.0262C45.8909 16.8967 45.9066 16.754 45.9939 16.6652C46.0813 16.5764 46.197 16.5224 46.2739 16.5224H53.5984C54.5286 16.5224 55.1956 16.6948 55.5999 17.0395C56.0043 17.364 56.2062 17.9218 56.2062 18.7129C56.2062 19.504 56.0043 20.1024 55.5999 20.4471C55.1956 20.7716 54.5286 20.9341 53.5984 20.9341H46.2745C46.083 20.9341 45.9274 21.0903 45.9274 21.2829V24.69C45.9274 24.8838 46.0842 25.0417 46.2774 25.0417H54.1445C56.3681 25.0417 58.0358 24.5449 59.1477 23.5506C60.2595 22.557 60.8154 21.1669 60.8154 19.3821C60.8154 17.9827 60.3405 16.8567 59.39 16.0046ZM54.8416 12.2923C54.4777 12.5964 53.8813 12.7485 53.0524 12.7485H46.4868C46.2617 12.7485 46.0992 12.7201 46.0286 12.6661C45.958 12.6121 45.9274 12.5372 45.9274 12.431V8.76221H52.9922C53.8414 8.76221 54.458 8.92472 54.8421 9.24918C55.2262 9.55332 55.4183 10.0606 55.4183 10.7704C55.4183 11.4803 55.2262 11.9673 54.8421 12.2917L54.8416 12.2923Z" fill="#0F0F12"/>
</svg>
