<svg width="104" height="104" viewBox="0 0 104 104" fill="none" xmlns="http://www.w3.org/2000/svg">
<g filter="url(#filter0_d_1214_3462)">
<g filter="url(#filter1_i_1214_3462)">
<circle cx="52" cy="48" r="36" fill="#F9FAFB"/>
</g>
<circle cx="52" cy="48" r="35.5" stroke="#E5E7EB"/>
<rect width="32" height="32" transform="translate(36.5 32)" fill="url(#paint0_radial_1214_3462)" fill-opacity="0.4"/>
<path d="M48.4998 47.9998L51.1665 50.6665L57.1665 44.6665M60.3681 38.6645C60.6426 39.3285 61.1696 39.8564 61.8332 40.1319L64.1601 41.0958C64.8242 41.3709 65.3518 41.8985 65.6269 42.5626C65.9019 43.2267 65.9019 43.9728 65.6269 44.6369L64.6637 46.9622C64.3885 47.6266 64.3882 48.3735 64.6646 49.0376L65.6261 51.3622C65.7624 51.6911 65.8326 52.0437 65.8327 52.3998C65.8328 52.7558 65.7627 53.1084 65.6264 53.4374C65.4902 53.7663 65.2904 54.0652 65.0386 54.3169C64.7868 54.5687 64.4879 54.7683 64.1589 54.9045L61.8336 55.8677C61.1696 56.1422 60.6418 56.6692 60.3663 57.3329L59.4024 59.6599C59.1274 60.324 58.5998 60.8516 57.9357 61.1266C57.2717 61.4017 56.5255 61.4017 55.8615 61.1266L53.5362 60.1635C52.8721 59.8891 52.1263 59.8896 51.4626 60.165L49.1357 61.1275C48.472 61.4019 47.7265 61.4017 47.063 61.1269C46.3995 60.852 45.8722 60.325 45.5969 59.6616L44.6328 57.334C44.3582 56.6699 43.8312 56.1421 43.1676 55.8665L40.8407 54.9027C40.1769 54.6277 39.6495 54.1004 39.3743 53.4367C39.0992 52.773 39.0988 52.0272 39.3733 51.3632L40.3365 49.0379C40.6108 48.3738 40.6103 47.6279 40.3349 46.9642L39.3731 44.6355C39.2368 44.3066 39.1666 43.9541 39.1665 43.598C39.1664 43.242 39.2365 42.8894 39.3728 42.5604C39.5091 42.2315 39.7088 41.9326 39.9606 41.6808C40.2124 41.4291 40.5113 41.2295 40.8403 41.0933L43.1656 40.1301C43.829 39.8558 44.3565 39.3294 44.6322 38.6666L45.5961 36.3396C45.8711 35.6755 46.3987 35.1479 47.0628 34.8728C47.7269 34.5977 48.473 34.5977 49.1371 34.8728L51.4623 35.836C52.1264 36.1104 52.8722 36.1098 53.5359 35.8344L55.8638 34.8743C56.5278 34.5994 57.2737 34.5994 57.9377 34.8745C58.6016 35.1495 59.1291 35.6769 59.4042 36.3409L60.3684 38.6685L60.3681 38.6645Z" stroke="#5F00E7" stroke-width="2" stroke-linecap="round" stroke-linejoin="round"/>
</g>
<defs>
<filter id="filter0_d_1214_3462" x="0" y="0" width="104" height="104" filterUnits="userSpaceOnUse" color-interpolation-filters="sRGB">
<feFlood flood-opacity="0" result="BackgroundImageFix"/>
<feColorMatrix in="SourceAlpha" type="matrix" values="0 0 0 0 0 0 0 0 0 0 0 0 0 0 0 0 0 0 127 0" result="hardAlpha"/>
<feOffset dy="4"/>
<feGaussianBlur stdDeviation="8"/>
<feComposite in2="hardAlpha" operator="out"/>
<feColorMatrix type="matrix" values="0 0 0 0 0.0625 0 0 0 0 0.0625 0 0 0 0 0.0625 0 0 0 0.15 0"/>
<feBlend mode="normal" in2="BackgroundImageFix" result="effect1_dropShadow_1214_3462"/>
<feBlend mode="normal" in="SourceGraphic" in2="effect1_dropShadow_1214_3462" result="shape"/>
</filter>
<filter id="filter1_i_1214_3462" x="16" y="12" width="72" height="76" filterUnits="userSpaceOnUse" color-interpolation-filters="sRGB">
<feFlood flood-opacity="0" result="BackgroundImageFix"/>
<feBlend mode="normal" in="SourceGraphic" in2="BackgroundImageFix" result="shape"/>
<feColorMatrix in="SourceAlpha" type="matrix" values="0 0 0 0 0 0 0 0 0 0 0 0 0 0 0 0 0 0 127 0" result="hardAlpha"/>
<feOffset dy="4"/>
<feGaussianBlur stdDeviation="2"/>
<feComposite in2="hardAlpha" operator="arithmetic" k2="-1" k3="1"/>
<feColorMatrix type="matrix" values="0 0 0 0 0.846712 0 0 0 0 0.746799 0 0 0 0 0.746799 0 0 0 0.25 0"/>
<feBlend mode="normal" in2="shape" result="effect1_innerShadow_1214_3462"/>
</filter>
<radialGradient id="paint0_radial_1214_3462" cx="0" cy="0" r="1" gradientUnits="userSpaceOnUse" gradientTransform="translate(16 16) rotate(90) scale(16)">
<stop stop-color="#5F00E7"/>
<stop offset="1" stop-color="white" stop-opacity="0"/>
</radialGradient>
</defs>
</svg>
