<svg width="104" height="104" viewBox="0 0 104 104" fill="none" xmlns="http://www.w3.org/2000/svg">
<g filter="url(#filter0_d_1214_3544)">
<g filter="url(#filter1_i_1214_3544)">
<circle cx="52" cy="48" r="36" fill="#F9FAFB"/>
</g>
<circle cx="52" cy="48" r="35.5" stroke="#E5E7EB"/>
<rect width="32" height="32" transform="translate(36.5 32)" fill="url(#paint0_radial_1214_3544)" fill-opacity="0.4"/>
<path d="M59.1667 43.9999C59.1666 43.3175 58.9063 42.6351 58.3856 42.1144C57.8649 41.5937 57.1825 41.3333 56.5 41.3333M56.5 52C60.9183 52 64.5 48.4183 64.5 44C64.5 39.5817 60.9183 36 56.5 36C52.0817 36 48.5 39.5817 48.5 44C48.5 44.3649 48.5244 44.7241 48.5717 45.076C48.6496 45.6549 48.6885 45.9443 48.6623 46.1275C48.635 46.3182 48.6003 46.421 48.5063 46.5892C48.416 46.7507 48.2569 46.9097 47.9388 47.2278L41.1248 54.0418C40.8942 54.2724 40.7789 54.3877 40.6965 54.5223C40.6234 54.6416 40.5695 54.7716 40.5368 54.9077C40.5 55.0611 40.5 55.2242 40.5 55.5503V57.8667C40.5 58.6134 40.5 58.9868 40.6453 59.272C40.7732 59.5229 40.9771 59.7268 41.228 59.8547C41.5132 60 41.8866 60 42.6333 60H45.8333V57.3333H48.5V54.6667H51.1667L53.2722 52.5612C53.5903 52.2431 53.7493 52.084 53.9108 51.9937C54.079 51.8997 54.1818 51.865 54.3725 51.8377C54.5557 51.8115 54.8451 51.8504 55.4239 51.9283C55.7759 51.9756 56.1351 52 56.5 52Z" stroke="#5F00E7" stroke-width="2" stroke-linecap="round" stroke-linejoin="round"/>
</g>
<defs>
<filter id="filter0_d_1214_3544" x="0" y="0" width="104" height="104" filterUnits="userSpaceOnUse" color-interpolation-filters="sRGB">
<feFlood flood-opacity="0" result="BackgroundImageFix"/>
<feColorMatrix in="SourceAlpha" type="matrix" values="0 0 0 0 0 0 0 0 0 0 0 0 0 0 0 0 0 0 127 0" result="hardAlpha"/>
<feOffset dy="4"/>
<feGaussianBlur stdDeviation="8"/>
<feComposite in2="hardAlpha" operator="out"/>
<feColorMatrix type="matrix" values="0 0 0 0 0.0625 0 0 0 0 0.0625 0 0 0 0 0.0625 0 0 0 0.15 0"/>
<feBlend mode="normal" in2="BackgroundImageFix" result="effect1_dropShadow_1214_3544"/>
<feBlend mode="normal" in="SourceGraphic" in2="effect1_dropShadow_1214_3544" result="shape"/>
</filter>
<filter id="filter1_i_1214_3544" x="16" y="12" width="72" height="76" filterUnits="userSpaceOnUse" color-interpolation-filters="sRGB">
<feFlood flood-opacity="0" result="BackgroundImageFix"/>
<feBlend mode="normal" in="SourceGraphic" in2="BackgroundImageFix" result="shape"/>
<feColorMatrix in="SourceAlpha" type="matrix" values="0 0 0 0 0 0 0 0 0 0 0 0 0 0 0 0 0 0 127 0" result="hardAlpha"/>
<feOffset dy="4"/>
<feGaussianBlur stdDeviation="2"/>
<feComposite in2="hardAlpha" operator="arithmetic" k2="-1" k3="1"/>
<feColorMatrix type="matrix" values="0 0 0 0 0.846712 0 0 0 0 0.746799 0 0 0 0 0.746799 0 0 0 0.25 0"/>
<feBlend mode="normal" in2="shape" result="effect1_innerShadow_1214_3544"/>
</filter>
<radialGradient id="paint0_radial_1214_3544" cx="0" cy="0" r="1" gradientUnits="userSpaceOnUse" gradientTransform="translate(16 16) rotate(90) scale(16)">
<stop stop-color="#5F00E7"/>
<stop offset="1" stop-color="white" stop-opacity="0"/>
</radialGradient>
</defs>
</svg>
