<svg width="104" height="104" viewBox="0 0 104 104" fill="none" xmlns="http://www.w3.org/2000/svg">
<g filter="url(#filter0_d_1318_1326)">
<g filter="url(#filter1_i_1318_1326)">
<circle cx="52" cy="48" r="36" fill="#F9FAFB"/>
</g>
<circle cx="52" cy="48" r="35.5" stroke="#E5E7EB"/>
<rect width="32" height="32" transform="translate(36.5 32)" fill="url(#paint0_radial_1318_1326)" fill-opacity="0.4"/>
<path d="M52.5003 49.3333V41.3333M48.5003 45.3333H56.5003M61.8337 60V42.4C61.8337 40.1598 61.8337 39.0397 61.3977 38.184C61.0142 37.4314 60.4023 36.8195 59.6496 36.436C58.794 36 57.6739 36 55.4337 36H49.567C47.3268 36 46.2067 36 45.351 36.436C44.5984 36.8195 43.9865 37.4314 43.603 38.184C43.167 39.0397 43.167 40.1598 43.167 42.4V60L52.5003 54.6667L61.8337 60Z" stroke="#5F00E7" stroke-width="2" stroke-linecap="round" stroke-linejoin="round"/>
</g>
<defs>
<filter id="filter0_d_1318_1326" x="0" y="0" width="104" height="104" filterUnits="userSpaceOnUse" color-interpolation-filters="sRGB">
<feFlood flood-opacity="0" result="BackgroundImageFix"/>
<feColorMatrix in="SourceAlpha" type="matrix" values="0 0 0 0 0 0 0 0 0 0 0 0 0 0 0 0 0 0 127 0" result="hardAlpha"/>
<feOffset dy="4"/>
<feGaussianBlur stdDeviation="8"/>
<feComposite in2="hardAlpha" operator="out"/>
<feColorMatrix type="matrix" values="0 0 0 0 0.0625 0 0 0 0 0.0625 0 0 0 0 0.0625 0 0 0 0.15 0"/>
<feBlend mode="normal" in2="BackgroundImageFix" result="effect1_dropShadow_1318_1326"/>
<feBlend mode="normal" in="SourceGraphic" in2="effect1_dropShadow_1318_1326" result="shape"/>
</filter>
<filter id="filter1_i_1318_1326" x="16" y="12" width="72" height="76" filterUnits="userSpaceOnUse" color-interpolation-filters="sRGB">
<feFlood flood-opacity="0" result="BackgroundImageFix"/>
<feBlend mode="normal" in="SourceGraphic" in2="BackgroundImageFix" result="shape"/>
<feColorMatrix in="SourceAlpha" type="matrix" values="0 0 0 0 0 0 0 0 0 0 0 0 0 0 0 0 0 0 127 0" result="hardAlpha"/>
<feOffset dy="4"/>
<feGaussianBlur stdDeviation="2"/>
<feComposite in2="hardAlpha" operator="arithmetic" k2="-1" k3="1"/>
<feColorMatrix type="matrix" values="0 0 0 0 0.846712 0 0 0 0 0.746799 0 0 0 0 0.746799 0 0 0 0.25 0"/>
<feBlend mode="normal" in2="shape" result="effect1_innerShadow_1318_1326"/>
</filter>
<radialGradient id="paint0_radial_1318_1326" cx="0" cy="0" r="1" gradientUnits="userSpaceOnUse" gradientTransform="translate(16 16) rotate(90) scale(16)">
<stop stop-color="#5F00E7"/>
<stop offset="1" stop-color="white" stop-opacity="0"/>
</radialGradient>
</defs>
</svg>
