<svg width="104" height="104" viewBox="0 0 104 104" fill="none" xmlns="http://www.w3.org/2000/svg">
<g filter="url(#filter0_d_1289_617)">
<g filter="url(#filter1_i_1289_617)">
<circle cx="52" cy="48" r="36" fill="#1DA656"/>
</g>
<path d="M65.8334 46.7813V48.008C65.8318 50.8832 64.9007 53.6809 63.1792 55.9837C61.4576 58.2866 59.0378 59.9713 56.2806 60.7865C53.5233 61.6017 50.5764 61.5038 47.8794 60.5074C45.1823 59.511 42.8796 57.6694 41.3147 55.2574C39.7498 52.8453 39.0065 49.992 39.1957 47.123C39.3848 44.254 40.4964 41.5231 42.3645 39.3374C44.2326 37.1517 46.7571 35.6285 49.5617 34.9948C52.3662 34.3612 55.3004 34.6511 57.9268 35.8213M65.8334 37.3337L52.5001 50.6803L48.5001 46.6803" stroke="white" stroke-width="2" stroke-linecap="round" stroke-linejoin="round"/>
</g>
<defs>
<filter id="filter0_d_1289_617" x="0" y="0" width="104" height="104" filterUnits="userSpaceOnUse" color-interpolation-filters="sRGB">
<feFlood flood-opacity="0" result="BackgroundImageFix"/>
<feColorMatrix in="SourceAlpha" type="matrix" values="0 0 0 0 0 0 0 0 0 0 0 0 0 0 0 0 0 0 127 0" result="hardAlpha"/>
<feOffset dy="4"/>
<feGaussianBlur stdDeviation="8"/>
<feComposite in2="hardAlpha" operator="out"/>
<feColorMatrix type="matrix" values="0 0 0 0 0.0625 0 0 0 0 0.0625 0 0 0 0 0.0625 0 0 0 0.15 0"/>
<feBlend mode="normal" in2="BackgroundImageFix" result="effect1_dropShadow_1289_617"/>
<feBlend mode="normal" in="SourceGraphic" in2="effect1_dropShadow_1289_617" result="shape"/>
</filter>
<filter id="filter1_i_1289_617" x="16" y="12" width="72" height="76" filterUnits="userSpaceOnUse" color-interpolation-filters="sRGB">
<feFlood flood-opacity="0" result="BackgroundImageFix"/>
<feBlend mode="normal" in="SourceGraphic" in2="BackgroundImageFix" result="shape"/>
<feColorMatrix in="SourceAlpha" type="matrix" values="0 0 0 0 0 0 0 0 0 0 0 0 0 0 0 0 0 0 127 0" result="hardAlpha"/>
<feOffset dy="4"/>
<feGaussianBlur stdDeviation="2"/>
<feComposite in2="hardAlpha" operator="arithmetic" k2="-1" k3="1"/>
<feColorMatrix type="matrix" values="0 0 0 0 0.846712 0 0 0 0 0.746799 0 0 0 0 0.746799 0 0 0 0.25 0"/>
<feBlend mode="normal" in2="shape" result="effect1_innerShadow_1289_617"/>
</filter>
</defs>
</svg>
