<svg width="104" height="104" viewBox="0 0 104 104" fill="none" xmlns="http://www.w3.org/2000/svg">
<g filter="url(#filter0_d_1214_3380)">
<g filter="url(#filter1_i_1214_3380)">
<circle cx="52" cy="48" r="36" fill="#F9FAFB"/>
</g>
<circle cx="52" cy="48" r="35.5" stroke="#E5E7EB"/>
<rect width="32" height="32" transform="translate(36.5 32)" fill="url(#paint0_radial_1214_3380)" fill-opacity="0.4"/>
<path d="M65.8334 60V57.3333C65.8334 54.8482 64.1337 52.7601 61.8334 52.168M57.1667 36.3877C59.1213 37.1789 60.5001 39.0951 60.5001 41.3333C60.5001 43.5716 59.1213 45.4878 57.1667 46.279M59.1667 60C59.1667 57.515 59.1667 56.2725 58.7608 55.2924C58.2195 53.9855 57.1812 52.9473 55.8744 52.406C54.8943 52 53.6518 52 51.1667 52H47.1667C44.6817 52 43.4392 52 42.4591 52.406C41.1523 52.9473 40.114 53.9855 39.5727 55.2924C39.1667 56.2725 39.1667 57.515 39.1667 60M54.5001 41.3333C54.5001 44.2789 52.1123 46.6667 49.1667 46.6667C46.2212 46.6667 43.8334 44.2789 43.8334 41.3333C43.8334 38.3878 46.2212 36 49.1667 36C52.1123 36 54.5001 38.3878 54.5001 41.3333Z" stroke="#5F00E7" stroke-width="2" stroke-linecap="round" stroke-linejoin="round"/>
</g>
<defs>
<filter id="filter0_d_1214_3380" x="0" y="0" width="104" height="104" filterUnits="userSpaceOnUse" color-interpolation-filters="sRGB">
<feFlood flood-opacity="0" result="BackgroundImageFix"/>
<feColorMatrix in="SourceAlpha" type="matrix" values="0 0 0 0 0 0 0 0 0 0 0 0 0 0 0 0 0 0 127 0" result="hardAlpha"/>
<feOffset dy="4"/>
<feGaussianBlur stdDeviation="8"/>
<feComposite in2="hardAlpha" operator="out"/>
<feColorMatrix type="matrix" values="0 0 0 0 0.0625 0 0 0 0 0.0625 0 0 0 0 0.0625 0 0 0 0.15 0"/>
<feBlend mode="normal" in2="BackgroundImageFix" result="effect1_dropShadow_1214_3380"/>
<feBlend mode="normal" in="SourceGraphic" in2="effect1_dropShadow_1214_3380" result="shape"/>
</filter>
<filter id="filter1_i_1214_3380" x="16" y="12" width="72" height="76" filterUnits="userSpaceOnUse" color-interpolation-filters="sRGB">
<feFlood flood-opacity="0" result="BackgroundImageFix"/>
<feBlend mode="normal" in="SourceGraphic" in2="BackgroundImageFix" result="shape"/>
<feColorMatrix in="SourceAlpha" type="matrix" values="0 0 0 0 0 0 0 0 0 0 0 0 0 0 0 0 0 0 127 0" result="hardAlpha"/>
<feOffset dy="4"/>
<feGaussianBlur stdDeviation="2"/>
<feComposite in2="hardAlpha" operator="arithmetic" k2="-1" k3="1"/>
<feColorMatrix type="matrix" values="0 0 0 0 0.846712 0 0 0 0 0.746799 0 0 0 0 0.746799 0 0 0 0.25 0"/>
<feBlend mode="normal" in2="shape" result="effect1_innerShadow_1214_3380"/>
</filter>
<radialGradient id="paint0_radial_1214_3380" cx="0" cy="0" r="1" gradientUnits="userSpaceOnUse" gradientTransform="translate(16 16) rotate(90) scale(16)">
<stop stop-color="#5F00E7"/>
<stop offset="1" stop-color="white" stop-opacity="0"/>
</radialGradient>
</defs>
</svg>
