<svg width="104" height="104" viewBox="0 0 104 104" fill="none" xmlns="http://www.w3.org/2000/svg">
<g filter="url(#filter0_d_677_7113)">
<g filter="url(#filter1_i_677_7113)">
<circle cx="52" cy="48.0001" r="36" fill="#F9FAFB"/>
</g>
<circle cx="52" cy="48.0001" r="35.5" stroke="#E5E7EB"/>
<rect width="32" height="32" transform="translate(36.5 32.0001)" fill="url(#paint0_radial_677_7113)" fill-opacity="0.4"/>
<path d="M53.8348 46.6666L41.1681 59.3333M55.1927 36.7179C56.8167 37.7955 58.3777 39.0659 59.8363 40.5246C61.3076 41.9958 62.5873 43.5711 63.6709 45.2103M48.8414 42.5281L45.0083 41.2504C44.5668 41.1033 44.0806 41.1969 43.7254 41.4975L39.9158 44.7209C39.1359 45.3808 39.3575 46.6367 40.3161 46.9899L43.9257 48.3198M52.0762 56.47L53.4061 60.0796C53.7592 61.0382 55.0151 61.2598 55.675 60.4799L58.8985 56.6703C59.1991 56.3151 59.2927 55.8289 59.1455 55.3874L57.8678 51.5543M62.2996 35.0276L55.7576 36.1179C55.0512 36.2356 54.4033 36.5828 53.914 37.1058L45.0966 46.5313C42.8111 48.9745 42.8747 52.7899 45.2403 55.1556C47.606 57.5213 51.4214 57.5849 53.8646 55.2993L63.2901 46.4819C63.8131 45.9926 64.1603 45.3447 64.278 44.6383L65.3684 38.0964C65.6692 36.2915 64.1044 34.7268 62.2996 35.0276Z" stroke="#5F00E7" stroke-width="2" stroke-linecap="round" stroke-linejoin="round"/>
</g>
<defs>
<filter id="filter0_d_677_7113" x="0" y="6.10352e-05" width="104" height="104" filterUnits="userSpaceOnUse" color-interpolation-filters="sRGB">
<feFlood flood-opacity="0" result="BackgroundImageFix"/>
<feColorMatrix in="SourceAlpha" type="matrix" values="0 0 0 0 0 0 0 0 0 0 0 0 0 0 0 0 0 0 127 0" result="hardAlpha"/>
<feOffset dy="4"/>
<feGaussianBlur stdDeviation="8"/>
<feComposite in2="hardAlpha" operator="out"/>
<feColorMatrix type="matrix" values="0 0 0 0 0.0625 0 0 0 0 0.0625 0 0 0 0 0.0625 0 0 0 0.15 0"/>
<feBlend mode="normal" in2="BackgroundImageFix" result="effect1_dropShadow_677_7113"/>
<feBlend mode="normal" in="SourceGraphic" in2="effect1_dropShadow_677_7113" result="shape"/>
</filter>
<filter id="filter1_i_677_7113" x="16" y="12.0001" width="72" height="76" filterUnits="userSpaceOnUse" color-interpolation-filters="sRGB">
<feFlood flood-opacity="0" result="BackgroundImageFix"/>
<feBlend mode="normal" in="SourceGraphic" in2="BackgroundImageFix" result="shape"/>
<feColorMatrix in="SourceAlpha" type="matrix" values="0 0 0 0 0 0 0 0 0 0 0 0 0 0 0 0 0 0 127 0" result="hardAlpha"/>
<feOffset dy="4"/>
<feGaussianBlur stdDeviation="2"/>
<feComposite in2="hardAlpha" operator="arithmetic" k2="-1" k3="1"/>
<feColorMatrix type="matrix" values="0 0 0 0 0.846712 0 0 0 0 0.746799 0 0 0 0 0.746799 0 0 0 0.25 0"/>
<feBlend mode="normal" in2="shape" result="effect1_innerShadow_677_7113"/>
</filter>
<radialGradient id="paint0_radial_677_7113" cx="0" cy="0" r="1" gradientUnits="userSpaceOnUse" gradientTransform="translate(16 16) rotate(90) scale(16)">
<stop stop-color="#5F00E7"/>
<stop offset="1" stop-color="white" stop-opacity="0"/>
</radialGradient>
</defs>
</svg>
